$Comments
-------------------------------------------------------
File exported by Pointwise (www.pointwise.com)
-------------------------------------------------------
$EndComments
$MeshFormat
2.2 0 8
$EndMeshFormat
$Comments
-------------------------------------------------------
NumNodes
Id x y z
-------------------------------------------------------
$EndComments
$Nodes
35
 1 0 1 0
 2 0 0.75 0
 3 0 0.5 0
 4 0 0.25 0
 5 0 0 0
 6 0.25 0 0
 7 0.5 0 0
 8 0.75 0 0
 9 1 0 0
10 1 0.25 0
11 1 0.5 0
12 1 0.75 0
13 1 1 0
14 0.75 1 0
15 0.5 1 0
16 0.25 1 0
17 0.82341592 0.18278211 0
18 0.16878791 0.18519744 0
19 0.83782797 0.76479963 0
20 0.71431293 0.82270356 0
21 0.15453763 0.36210185 0
22 0.36671894 0.22386365 0
23 0.30641017 0.41891218 0
24 0.52285327 0.80110305 0
25 0.38534186 0.6857371 0
26 0.32888457 0.85398126 0
27 0.62359953 0.22794287 0
28 0.49541325 0.31519935 0
29 0.7818017 0.58014363 0
30 0.68074413 0.41970635 0
31 0.83472002 0.36749615 0
32 0.49592129 0.49379152 0
33 0.63002644 0.6375102 0
34 0.17602583 0.76842093 0
35 0.21694446 0.59326755 0
$EndNodes
$Comments
-------------------------------------------------------
Types: bar(1) tri(2) quad(3) tet(4) hex(5) prism(6) pyramid(7)
NumElements
Id Type NumTags PhysGrp ElemGrp IndexList
-------------------------------------------------------
$EndComments
$Elements
46
 1  2 2 1 1 26 16 34
 2  2 2 1 1 20 24 33
 3  2 2 1 1 17  8  9
 4  2 2 1 1 15 16 26
 5  2 2 1 1  5 18  4
 6  2 2 1 1 13 19 12
 7  2 2 1 1 18  5  6
 8  2 2 1 1 17  9 10
 9  3 2 1 1 19 29 11 12
10  3 2 1 1 27 30 32 28
11  3 2 1 1 23 22 28 32
12  3 2 1 1 27 17 31 30
13  3 2 1 1 19 20 33 29
14  3 2 1 1 35  3 21 23
15  3 2 1 1 23 32 25 35
16  3 2 1 1 34 35 25 26
17  3 2 1 1  3  4 18 21
18  3 2 1 1  3 35 34  2
19  3 2 1 1 11 31 17 10
20  3 2 1 1  7 22 18  6
21  3 2 1 1 33 32 30 29
22  3 2 1 1  1  2 34 16
23  3 2 1 1 25 32 33 24
24  3 2 1 1 11 29 30 31
25  3 2 1 1 27  7  8 17
26  3 2 1 1  7 27 28 22
27  3 2 1 1 25 24 15 26
28  3 2 1 1 20 14 15 24
29  3 2 1 1 21 18 22 23
30  3 2 1 1 19 13 14 20
31  1 2 2 2  5  6
32  1 2 2 2  6  7
33  1 2 2 2  7  8
34  1 2 2 2  8  9
35  1 2 3 3  1  2
36  1 2 3 3  2  3
37  1 2 3 3  3  4
38  1 2 3 3  4  5
39  1 2 4 4  9 10
40  1 2 4 4 10 11
41  1 2 4 4 11 12
42  1 2 4 4 12 13
43  1 2 5 5 13 14
44  1 2 5 5 14 15
45  1 2 5 5 15 16
46  1 2 5 5 16  1
$EndElements
$Comments
-------------------------------------------------------
NumNames
Dim Id Name
-------------------------------------------------------
$EndComments
$PhysicalNames
5
2 1 "fluid"
1 2 "bottom"
1 3 "left"
1 4 "right"
1 5 "top"
$EndPhysicalNames
