$Comments
-------------------------------------------------------
File exported by Pointwise (www.pointwise.com)
-------------------------------------------------------
$EndComments
$MeshFormat
2.2 0 8
$EndMeshFormat
$Comments
-------------------------------------------------------
NumNodes
Id x y z
-------------------------------------------------------
$EndComments
$Nodes
923
  1 0 0 0
  2 0.1 0 0
  3 0.2 0 0
  4 0.3 0 0
  5 0.4 0 0
  6 0.5 0 0
  7 0.6 0 0
  8 0.7 0 0
  9 0.8 0 0
 10 0.9 0 0
 11 1 0 0
 12 1.1 0 0
 13 1.2 0 0
 14 1.3 0 0
 15 1.4 0 0
 16 1.5 0 0
 17 1.6 0 0
 18 1.7 0 0
 19 1.8 0 0
 20 1.9 0 0
 21 2 0 0
 22 2.1 0 0
 23 2.2 0 0
 24 2.3 0 0
 25 2.4 0 0
 26 2.5 0 0
 27 2.6 0 0
 28 2.7 0 0
 29 2.8 0 0
 30 2.9 0 0
 31 3 0 0
 32 3.1 0 0
 33 3.2 0 0
 34 3.3 0 0
 35 3.4 0 0
 36 3.5 0 0
 37 3.6 0 0
 38 3.7 0 0
 39 3.8 0 0
 40 3.9 0 0
 41 4 0 0
 42 4.1 0 0
 43 4.2 0 0
 44 4.3 0 0
 45 4.4 0 0
 46 4.5 0 0
 47 4.6 0 0
 48 4.7 0 0
 49 4.8 0 0
 50 4.9 0 0
 51 5 0 0
 52 5 0.1 0
 53 5 0.2 0
 54 5 0.3 0
 55 5 0.4 0
 56 5 0.5 0
 57 5 0.6 0
 58 5 0.7 0
 59 5 0.8 0
 60 5 0.9 0
 61 5 1 0
 62 4.9 1 0
 63 4.8 1 0
 64 4.7 1 0
 65 4.6 1 0
 66 4.5 1 0
 67 4.4 1 0
 68 4.3 1 0
 69 4.2 1 0
 70 4.1 1 0
 71 4 1 0
 72 3.9 1 0
 73 3.8 1 0
 74 3.7 1 0
 75 3.6 1 0
 76 3.5 1 0
 77 3.4 1 0
 78 3.3 1 0
 79 3.2 1 0
 80 3.1 1 0
 81 3 1 0
 82 2.9 1 0
 83 2.8 1 0
 84 2.7 1 0
 85 2.6 1 0
 86 2.5 1 0
 87 2.4 1 0
 88 2.3 1 0
 89 2.2 1 0
 90 2.1 1 0
 91 2 1 0
 92 1.9 1 0
 93 1.8 1 0
 94 1.7 1 0
 95 1.6 1 0
 96 1.5 1 0
 97 1.4 1 0
 98 1.3 1 0
 99 1.2 1 0
100 1.1 1 0
101 1 1 0
102 0.9 1 0
103 0.8 1 0
104 0.7 1 0
105 0.6 1 0
106 0.5 1 0
107 0.4 1 0
108 0.3 1 0
109 0.2 1 0
110 0.1 1 0
111 0 1 0
112 0 0.9 0
113 0 0.8 0
114 0 0.7 0
115 0 0.6 0
116 0 0.5 0
117 0 0.4 0
118 0 0.3 0
119 0 0.2 0
120 0 0.1 0
121 0.084354662 0.093102235 0
122 0.091628518 0.91173535 0
123 1.2507024 0.097935265 0
124 1.154548 0.082301303 0
125 2.7445517 0.73552015 0
126 2.7179748 0.69917097 0
127 2.7590492 0.67561876 0
128 2.7935823 0.71538402 0
129 2.7864649 0.083230069 0
130 2.6819865 0.083984421 0
131 2.5631812 0.091827652 0
132 2.4498917 0.13246247 0
133 4.321031 0.88000672 0
134 3.157163 0.92213869 0
135 4.2233435 0.36542351 0
136 4.1271381 0.35624178 0
137 4.157821 0.26307542 0
138 4.2508952 0.27948423 0
139 4.0710257 0.073562839 0
140 4.9005274 0.47755783 0
141 4.7753627 0.51044918 0
142 4.8087237 0.420508 0
143 2.6502914 0.94397876 0
144 2.6969246 0.885333 0
145 2.7469434 0.94618734 0
146 2.0320247 0.072618818 0
147 1.9417341 0.084486115 0
148 4.492339 0.90796238 0
149 0.12756214 0.34972622 0
150 0.10355853 0.44447986 0
151 0.088884592 0.53578883 0
152 0.088540076 0.25728427 0
153 0.072126333 0.17551807 0
154 1.85 0.08660254 0
155 1.3642856 0.91568977 0
156 0.33765567 0.083084245 0
157 1.6764784 0.10874189 0
158 1.5904888 0.095259947 0
159 1.0503974 0.070172116 0
160 1.011188 0.1052215 0
161 0.95328494 0.088122911 0
162 0.84726851 0.068986665 0
163 0.89192148 0.10854613 0
164 0.84738277 0.16247962 0
165 0.79733355 0.11340981 0
166 4.049338 0.91967325 0
167 3.95 0.90759619 0
168 4.0110562 0.85218862 0
169 0.50559844 0.90873955 0
170 0.61096815 0.90576025 0
171 4.1202792 0.90943879 0
172 4.211274 0.89878034 0
173 4.0938945 0.80918151 0
174 0.54871703 0.088133103 0
175 1.7811636 0.91438681 0
176 1.8067305 0.82906156 0
177 1.8951329 0.86407365 0
178 1.8534255 0.9240105 0
179 1.6927311 0.90584929 0
180 1.4715134 0.88847603 0
181 1.5870021 0.90461581 0
182 1.5902026 0.82203614 0
183 1.7098171 0.80473804 0
184 0.25297066 0.91809336 0
185 0.17361684 0.92644703 0
186 0.32524384 0.90094924 0
187 0.29959174 0.82565499 0
188 0.39112895 0.82106158 0
189 0.40719743 0.90915836 0
190 2.3157877 0.18817096 0
191 2.3322216 0.11176101 0
192 2.3932576 0.20686479 0
193 2.2446448 0.095924196 0
194 4.6670547 0.90472694 0
195 4.5900881 0.91003855 0
196 4.8235001 0.93006997 0
197 4.9063998 0.91667609 0
198 4.9212352 0.74395505 0
199 4.9176552 0.67693477 0
200 1.9392017 0.92234525 0
201 3.0981549 0.89684604 0
202 3.0570681 0.92852532 0
203 3.0221482 0.87308857 0
204 3.0802337 0.83987412 0
205 2.9481447 0.90207135 0
206 2.8760009 0.8808581 0
207 2.8747302 0.81585108 0
208 2.9410435 0.82529344 0
209 4.4498138 0.10982992 0
210 4.9233822 0.081158541 0
211 3.250541 0.90133833 0
212 2.8415404 0.9430701 0
213 2.4528422 0.93736286 0
214 2.5033207 0.89386693 0
215 2.5518904 0.94611224 0
216 2.5814241 0.71083772 0
217 2.6272208 0.723147 0
218 2.6205913 0.76304573 0
219 2.5790068 0.7458691 0
220 2.4234528 0.84501194 0
221 2.5114304 0.81661737 0
222 3.6242954 0.91581357 0
223 3.3528994 0.89478829 0
224 3.2976312 0.82562358 0
225 3.3567581 0.74898412 0
226 3.4115154 0.84246497 0
227 2.8807496 0.088077423 0
228 2.9646016 0.10141687 0
229 2.9772265 0.17592828 0
230 2.8812038 0.16703376 0
231 3.1271471 0.075025294 0
232 3.0621782 0.095503344 0
233 0.68245901 0.79457259 0
234 0.79527124 0.77494081 0
235 0.72800325 0.89733637 0
236 4.912022 0.37115697 0
237 4.9289419 0.28872048 0
238 1.1225549 0.92339817 0
239 1.1760209 0.83977398 0
240 1.2448778 0.90219281 0
241 0.94253707 0.9115922 0
242 0.98708409 0.82086702 0
243 1.0605755 0.84193046 0
244 1.0314169 0.91923021 0
245 4.1068679 0.1652688 0
246 4.021439 0.14441766 0
247 4.1541589 0.084022457 0
248 4.2456098 0.089321908 0
249 4.3902237 0.19130082 0
250 4.3270621 0.098197947 0
251 2.0206098 0.90840171 0
252 2.0037724 0.83499876 0
253 3.0832765 0.1642019 0
254 3.2286468 0.072391809 0
255 3.343927 0.0863811 0
256 4.9099291 0.58568873 0
257 4.8136389 0.60375505 0
258 1.3828225 0.10683855 0
259 1.4047307 0.17687013 0
260 1.3546174 0.24999826 0
261 1.2968017 0.17495531 0
262 1.4909896 0.095601086 0
263 1.7723595 0.10429659 0
264 1.8668652 0.16514701 0
265 1.7919566 0.18628189 0
266 4.7141498 0.084573911 0
267 4.8263351 0.091030863 0
268 2.1243246 0.88659335 0
269 3.4602884 0.073799457 0
270 3.8651786 0.084060105 0
271 3.6462536 0.093874059 0
272 3.5693653 0.075101202 0
273 3.4484307 0.90869832 0
274 3.5337766 0.88362999 0
275 2.164646 0.076244545 0
276 2.2558318 0.91561131 0
277 2.3355488 0.91922755 0
278 3.7345431 0.11373573 0
279 3.7559874 0.89373997 0
280 3.8073096 0.80841873 0
281 3.8878035 0.85222731 0
282 3.8330181 0.92090656 0
283 0.75028241 0.073038134 0
284 4.7420119 0.92332927 0
285 0.4484721 0.051269373 0
286 0.08470309 0.63148955 0
287 0.089121054 0.7265665 0
288 0.18095013 0.28317661 0
289 0.25703833 0.33462111 0
290 0.19831964 0.40374581 0
291 0.26254331 0.081702226 0
292 0.16529232 0.09689087 0
293 0.24997428 0.16202243 0
294 0.15447183 0.20389279 0
295 3.9439287 0.10559577 0
296 1.179772 0.16790497 0
297 1.1203762 0.17690391 0
298 1.0897215 0.11888509 0
299 3.3909307 0.19398499 0
300 3.4922071 0.1739665 0
301 0.65296539 0.065956899 0
302 4.627747 0.10935597 0
303 1.4939325 0.1840113 0
304 4.9044451 0.84005552 0
305 4.9181715 0.17946542 0
306 2.789852 0.88567484 0
307 4.8394565 0.67809529 0
308 3.8090272 0.15869095 0
309 0.093639937 0.82149664 0
310 0.96139111 0.15820855 0
311 1.0298816 0.15736948 0
312 4.5456453 0.088178557 0
313 2.1015591 0.14460451 0
314 0.70075711 0.10881276 0
315 2.3382215 0.83924013 0
316 2.4039479 0.90053412 0
317 0.84085964 0.90403831 0
318 1.3265403 0.80770185 0
319 1.408767 0.81872424 0
320 3.6063235 0.78878655 0
321 3.6814435 0.84050107 0
322 4.201923 0.79918337 0
323 4.5325877 0.81055591 0
324 4.6097838 0.82499556 0
325 2.7886967 0.82057906 0
326 2.7831236 0.16085843 0
327 2.6834526 0.16064986 0
328 0.48986292 0.81579217 0
329 0.59289454 0.81183845 0
330 4.8186187 0.31834956 0
331 4.7761265 0.18167949 0
332 4.843708 0.24347563 0
333 2.693485 0.80415023 0
334 2.7049343 0.75592655 0
335 2.7597588 0.76942231 0
336 1.5972122 0.18100881 0
337 1.6935309 0.18757249 0
338 4.6955957 0.83142278 0
339 4.846357 0.76653831 0
340 4.7896828 0.85429905 0
341 0.1979096 0.83427014 0
342 0.18128236 0.74161504 0
343 0.27726607 0.74045592 0
344 0.16202408 0.65935774 0
345 0.26074421 0.2474252 0
346 0.16727674 0.56718593 0
347 0.19900476 0.48815923 0
348 0.89289826 0.80722468 0
349 3.1768613 0.82308455 0
350 4.4180492 0.80354326 0
351 2.1963757 0.19287306 0
352 3.2755025 0.18854069 0
353 3.180093 0.17091445 0
354 2.2347312 0.82312997 0
355 0.61313406 0.10342194 0
356 0.40856979 0.10343888 0
357 4.2786481 0.19055266 0
358 4.1976629 0.17717667 0
359 2.6035491 0.88634217 0
360 4.5091889 0.1551797 0
361 2.581791 0.1674743 0
362 2.4899783 0.18712418 0
363 3.5961393 0.18276077 0
364 1.976383 0.16941091 0
365 4.6834663 0.18973608 0
366 4.7431577 0.26910244 0
367 4.7336066 0.73668369 0
368 1.512359 0.7918826 0
369 3.4870775 0.79423421 0
370 1.4365162 0.75413967 0
371 1.2470301 0.74964093 0
372 2.0847979 0.79207924 0
373 4.5776694 0.18338239 0
374 1.9163041 0.26031942 0
375 1.8237298 0.29243611 0
376 1.212382 0.25158327 0
377 0.33376996 0.16407994 0
378 2.9986192 0.81344946 0
379 3.0448818 0.8014106 0
380 2.6103443 0.81479563 0
381 3.6830584 0.20533162 0
382 4.2978106 0.78648603 0
383 3.8890971 0.1939053 0
384 3.2345057 0.74612992 0
385 0.48052444 0.16344451 0
386 0.41276849 0.15236519 0
387 0.48422201 0.10612078 0
388 1.076772 0.18761257 0
389 0.60423603 0.16443149 0
390 0.545371 0.15969271 0
391 0.79672068 0.16088925 0
392 0.73644274 0.15588324 0
393 0.66333791 0.14037276 0
394 0.68918572 0.18444987 0
395 0.90628129 0.16737738 0
396 2.793193 0.75138406 0
397 2.8242772 0.77018855 0
398 3.1087198 0.75447027 0
399 3.0535253 0.7464414 0
400 1.0356085 0.72344643 0
401 1.0801266 0.65379142 0
402 1.1775598 0.66624937 0
403 1.1125654 0.747826 0
404 0.83421312 0.7089739 0
405 0.88199254 0.63672582 0
406 0.9232132 0.71665583 0
407 0.64359247 0.2122105 0
408 0.71336975 0.22933298 0
409 0.74929184 0.20259448 0
410 2.8542214 0.32955852 0
411 2.7877233 0.27784827 0
412 2.8355555 0.2347647 0
413 2.8849316 0.27926954 0
414 2.7384255 0.21814411 0
415 2.2864103 0.72562756 0
416 2.3642251 0.76164015 0
417 3.9509925 0.77230352 0
418 4.0380309 0.71701394 0
419 4.2006378 0.64713705 0
420 4.251053 0.58144723 0
421 4.3024635 0.65476633 0
422 4.2509208 0.71580069 0
423 0.75800807 0.71976758 0
424 0.71675315 0.66969118 0
425 0.75160943 0.64885969 0
426 0.79081136 0.67649012 0
427 4.7042703 0.56154789 0
428 4.7298071 0.640787 0
429 4.637417 0.24612061 0
430 4.740386 0.37567543 0
431 2.6937161 0.27749785 0
432 2.6411811 0.22178094 0
433 2.3667459 0.28444612 0
434 2.2725537 0.28343614 0
435 2.6019534 0.28290422 0
436 2.5445977 0.23164755 0
437 2.511296 0.29611538 0
438 2.4239001 0.32961194 0
439 2.4499634 0.23716279 0
440 1.6186171 0.26973928 0
441 1.7112011 0.27856937 0
442 1.709499 0.36966834 0
443 1.6143525 0.36501883 0
444 1.5327432 0.28093978 0
445 2.1422753 0.29254231 0
446 2.0580506 0.25644455 0
447 3.1707695 0.67129604 0
448 3.5493306 0.7215383 0
449 3.4515127 0.71208437 0
450 3.4006849 0.63421244 0
451 3.4493086 0.57581827 0
452 3.5001317 0.6490753 0
453 4.7115347 0.4457342 0
454 4.6672518 0.5037306 0
455 1.1321139 0.23742564 0
456 1.1697767 0.34433617 0
457 1.1114124 0.29374275 0
458 1.4464954 0.26392208 0
459 1.4094562 0.35160737 0
460 4.5501477 0.7374012 0
461 4.6365706 0.74309562 0
462 4.4721538 0.7267793 0
463 4.3570228 0.72644473 0
464 4.4102831 0.6447113 0
465 0.27851971 0.4138636 0
466 0.36786372 0.73364079 0
467 0.25887575 0.64848278 0
468 0.58996199 0.22145267 0
469 0.32032726 0.32900535 0
470 0.34211923 0.37871396 0
471 0.26902441 0.46815545 0
472 1.9429082 0.75312505 0
473 1.8478667 0.73339127 0
474 1.7580811 0.70745358 0
475 1.7922534 0.6237571 0
476 1.8791008 0.63825394 0
477 0.46689198 0.71825227 0
478 0.58246067 0.72933302 0
479 3.7610392 0.24659282 0
480 1.630073 0.72704228 0
481 1.3601062 0.72818525 0
482 3.2864228 0.36362436 0
483 3.2647646 0.26200552 0
484 3.3805515 0.28207944 0
485 3.1624652 0.2796533 0
486 3.0566432 0.27362807 0
487 3.0564609 0.35241175 0
488 2.9919173 0.38352296 0
489 2.9697563 0.31685396 0
490 2.9227007 0.36682767 0
491 4.5382362 0.28522317 0
492 4.4645025 0.24574503 0
493 4.4241616 0.34821784 0
494 4.3592771 0.43339563 0
495 4.3110721 0.38157887 0
496 4.3437681 0.29888534 0
497 4.0639142 0.25246551 0
498 0.8012199 0.20194171 0
499 0.84580895 0.22003907 0
500 1.0794491 0.22706333 0
501 1.0201815 0.22129527 0
502 1.0521356 0.28321407 0
503 0.36742546 0.64292183 0
504 0.31511326 0.60118059 0
505 0.3593605 0.56742152 0
506 0.27234384 0.54549328 0
507 0.3828122 0.21102374 0
508 0.42157115 0.27131036 0
509 0.44381475 0.22180726 0
510 4.148875 0.70532055 0
511 0.67584142 0.72634338 0
512 1.9847472 0.63939909 0
513 2.0466858 0.57554779 0
514 2.1 0.65358984 0
515 2.0464646 0.71379915 0
516 2.9296965 0.23334001 0
517 3.7379809 0.75774604 0
518 0.51348227 0.28561671 0
519 0.49797775 0.23530319 0
520 0.54800649 0.22276173 0
521 0.55387748 0.27450284 0
522 1.5512037 0.70287856 0
523 1.4724908 0.65200689 0
524 2.1603599 0.73307663 0
525 3.0634206 0.70645155 0
526 3.0912811 0.69012057 0
527 3.5711515 0.26349199 0
528 3.473935 0.25816422 0
529 0.86186106 0.26371905 0
530 0.90451294 0.26227204 0
531 0.89064709 0.3091111 0
532 1.5167487 0.36366786 0
533 3.9690057 0.23234549 0
534 4.6409903 0.59535978 0
535 4.6580887 0.6679017 0
536 4.5717755 0.66082058 0
537 4.6831251 0.31615119 0
538 4.6451352 0.40805598 0
539 0.32618665 0.25552063 0
540 1.6859211 0.6515036 0
541 2.2187227 0.65828909 0
542 4.0971522 0.64559975 0
543 3.6607432 0.70947683 0
544 0.39162876 0.31693064 0
545 0.3302087 0.50461135 0
546 3.6414391 0.29489503 0
547 3.8046445 0.36517003 0
548 3.7110015 0.3419897 0
549 3.8410695 0.28035901 0
550 3.396938 0.50778284 0
551 3.3441834 0.5802238 0
552 3.2863499 0.5143844 0
553 3.3426777 0.43833954 0
554 0.63479851 0.65735224 0
555 3.506815 0.35724879 0
556 3.4040846 0.37503181 0
557 1.995857 0.33516657 0
558 1.8882839 0.37032509 0
559 2.3243902 0.35068207 0
560 2.2774164 0.43280505 0
561 2.2117742 0.36009782 0
562 3.8448302 0.725445 0
563 2.9847833 0.74998791 0
564 0.90213312 0.21832609 0
565 0.95611655 0.21996445 0
566 0.66634025 0.25989862 0
567 2.4241822 0.74175165 0
568 2.4329191 0.78769131 0
569 2.5562791 0.78036434 0
570 2.5255213 0.74229922 0
571 2.7890309 0.65139862 0
572 2.822197 0.68077149 0
573 2.4828936 0.77747948 0
574 2.4715237 0.73216831 0
575 2.885663 0.75739957 0
576 2.93411 0.76175797 0
577 2.6767661 0.72810927 0
578 2.6639602 0.76691375 0
579 0.63104315 0.25541911 0
580 1.0022287 0.29839494 0
581 0.98190825 0.25896764 0
582 2.4124838 0.68564837 0
583 2.4775897 0.69371421 0
584 2.5316117 0.70295754 0
585 2.8903078 0.72170912 0
586 2.9223803 0.71494273 0
587 2.8416007 0.7339393 0
588 3.9157529 0.33470155 0
589 4.0219622 0.34917232 0
590 3.9586413 0.44245754 0
591 0.98933533 0.63776161 0
592 3.292761 0.66451552 0
593 2.9967618 0.68027395 0
594 3.0202054 0.71376734 0
595 2.9620821 0.70182866 0
596 3.4995438 0.51278623 0
597 3.4496771 0.45084248 0
598 4.0027719 0.63068196 0
599 4.0500005 0.57408475 0
600 3.9114306 0.64568909 0
601 3.7864658 0.66030598 0
602 2.343073 0.65211577 0
603 1.7447267 0.57111974 0
604 1.5913419 0.62969594 0
605 4.5814974 0.45921979 0
606 4.492647 0.65749054 0
607 0.53634364 0.64584957 0
608 0.43520654 0.63069155 0
609 4.601805 0.55078544 0
610 3.6026029 0.64813896 0
611 3.1147769 0.34196202 0
612 1.8471041 0.4360061 0
613 1.8001325 0.37913082 0
614 1.2848924 0.33229447 0
615 1.229918 0.413781 0
616 0.75135968 0.26763062 0
617 0.7054256 0.27408799 0
618 0.46413223 0.28760868 0
619 0.31444055 0.6727598 0
620 4.584064 0.34605334 0
621 0.77979092 0.24105304 0
622 1.3000527 0.68167291 0
623 1.3977043 0.65944598 0
624 3.5500089 0.57976321 0
625 4.1507702 0.57910669 0
626 1.3426523 0.41381535 0
627 2.6121994 0.34599371 0
628 2.5336081 0.36088683 0
629 2.1026095 0.37290744 0
630 2.3838832 0.40751178 0
631 3.603162 0.37455385 0
632 0.34833584 0.44233715 0
633 4.496422 0.34099671 0
634 2.7816824 0.36081552 0
635 2.4702512 0.38046203 0
636 2.6958556 0.34227043 0
637 2.8999466 0.4389099 0
638 2.8678159 0.40213951 0
639 2.942733 0.41815336 0
640 3.1841823 0.36184236 0
641 3.6974815 0.6318667 0
642 3.85 0.57662698 0
643 3.7482937 0.55208631 0
644 3.8008953 0.49783441 0
645 4.0583686 0.44392897 0
646 4.0030214 0.50208614 0
647 2.535902 0.66773303 0
648 2.5860238 0.66991982 0
649 2.8586176 0.65772255 0
650 2.8628801 0.69278507 0
651 2.8316364 0.63862229 0
652 2.6295438 0.68257928 0
653 2.6645779 0.6896952 0
654 0.39529739 0.37695428 0
655 0.43696671 0.33101104 0
656 3.0437861 0.683676 0
657 2.6879324 0.6548401 0
658 0.83666848 0.28202735 0
659 0.85848085 0.32232626 0
660 0.81139223 0.31648717 0
661 0.94325855 0.28055565 0
662 0.61520476 0.29122556 0
663 0.59073959 0.25817731 0
664 0.81282918 0.2579348 0
665 1.8 0.50015077 0
666 1.7007322 0.50906751 0
667 1.7535115 0.45456678 0
668 2.0501736 0.4481728 0
669 1.1077387 0.35961959 0
670 0.8347101 0.56654954 0
671 0.78433311 0.55704956 0
672 0.79753923 0.50264896 0
673 0.84558229 0.51355689 0
674 0.93769559 0.61660341 0
675 0.9417589 0.5753228 0
676 0.99456889 0.57770632 0
677 0.96961256 0.30383396 0
678 1.0032621 0.34733605 0
679 0.96335041 0.3325513 0
680 3.7006672 0.49703319 0
681 3.6499626 0.57468047 0
682 4.5332285 0.58241089 0
683 0.71188813 0.31956366 0
684 0.6746261 0.31271702 0
685 0.47625671 0.32755663 0
686 0.4050931 0.44017092 0
687 0.40940216 0.56715076 0
688 3.2290008 0.59514565 0
689 3.1866462 0.52072166 0
690 3.1524749 0.56740713 0
691 2.9372259 0.66310076 0
692 2.9690429 0.64465338 0
693 3.12614 0.39656548 0
694 3.2264301 0.45123973 0
695 3.1386791 0.46909413 0
696 3.0631809 0.64750561 0
697 3.1199227 0.6161539 0
698 1.1085982 0.57463095 0
699 1.0394442 0.62144453 0
700 1.0488707 0.57278055 0
701 4.4459119 0.56339157 0
702 4.3547799 0.57924135 0
703 4.4049921 0.50275069 0
704 4.2053402 0.51893007 0
705 4.1612558 0.45556509 0
706 4.258282 0.45960128 0
707 0.74726376 0.60039776 0
708 0.68379624 0.62405043 0
709 0.58809866 0.3209678 0
710 0.77740486 0.34238911 0
711 0.81140528 0.36933423 0
712 0.76861529 0.39152633 0
713 0.73846582 0.3667418 0
714 0.74835612 0.31699323 0
715 2.2186029 0.50915721 0
716 2.1576459 0.43647161 0
717 2.1587306 0.58119003 0
718 2.103309 0.51034556 0
719 1.6567328 0.4531633 0
720 1.6465348 0.55966696 0
721 1.2433143 0.56750585 0
722 1.2908285 0.47904395 0
723 1.3474296 0.5210736 0
724 1.3569735 0.59312256 0
725 1.4320208 0.55921632 0
726 2.3594395 0.5657504 0
727 2.392779 0.61102499 0
728 2.2806187 0.58616215 0
729 2.398856 0.53847984 0
730 2.4286945 0.58084345 0
731 2.51448 0.61564541 0
732 2.4947396 0.65408264 0
733 2.4426947 0.63798449 0
734 2.4687045 0.59913353 0
735 2.599879 0.63000063 0
736 2.6381727 0.64160944 0
737 0.81369444 0.62004081 0
738 0.64574452 0.2997288 0
739 0.62503672 0.33482304 0
740 2.5844547 0.40627113 0
741 2.6255919 0.43541354 0
742 2.5938199 0.45018249 0
743 2.5589771 0.43834332 0
744 2.5061729 0.42300789 0
745 1.0453179 0.51450046 0
746 1.0929737 0.50006297 0
747 3.7526561 0.44129775 0
748 1.5555955 0.45132011 0
749 1.5996458 0.50926535 0
750 1.5397417 0.57397595 0
751 3.6008499 0.5079459 0
752 3.5519507 0.4574883 0
753 3.6539202 0.43038066 0
754 3.8535682 0.42326737 0
755 1.9454036 0.55388522 0
756 1.9995624 0.50320744 0
757 4.1050988 0.51317137 0
758 1.4520743 0.44281069 0
759 1.9469589 0.44534844 0
760 4.5309875 0.39308827 0
761 3.0140228 0.63944012 0
762 2.9498946 0.47694105 0
763 3.0067283 0.44094615 0
764 3.0225688 0.48714877 0
765 2.9839096 0.52100658 0
766 4.4647793 0.43510756 0
767 1.8960675 0.49555575 0
768 1.8448034 0.54698326 0
769 1.4954884 0.50493563 0
770 4.5108516 0.49318681 0
771 2.5570362 0.63205336 0
772 0.44634399 0.37285227 0
773 0.53805791 0.32560517 0
774 0.57599789 0.36141873 0
775 0.53150078 0.3593686 0
776 0.51028538 0.32171787 0
777 0.89074859 0.34338123 0
778 0.92833434 0.31941719 0
779 0.91818841 0.35795063 0
780 0.78904836 0.28861973 0
781 0.69897723 0.35426959 0
782 3.0669219 0.4133634 0
783 3.0790937 0.4662747 0
784 2.3289687 0.50171504 0
785 2.4455448 0.43151672 0
786 3.9543381 0.55089205 0
787 3.9024643 0.49890014 0
788 1.1724845 0.48556057 0
789 0.82029708 0.40631018 0
790 0.7796646 0.41934177 0
791 0.643615 0.56293604 0
792 0.70864697 0.54643841 0
793 0.89034695 0.57873856 0
794 0.59232191 0.60926386 0
795 0.5594944 0.56872833 0
796 0.49917851 0.59244814 0
797 2.6578701 0.38667404 0
798 2.8598154 0.43836876 0
799 2.8053237 0.42377186 0
800 2.7312996 0.39266843 0
801 2.6931289 0.43176733 0
802 2.8590989 0.47118819 0
803 2.8977417 0.47582156 0
804 1.0514782 0.33440774 0
805 0.95055374 0.35977023 0
806 0.86341027 0.36308194 0
807 3.0604405 0.52940468 0
808 0.96193586 0.43024659 0
809 0.93189538 0.43560089 0
810 0.92813581 0.3961318 0
811 0.97205472 0.38941602 0
812 0.80986021 0.4534473 0
813 0.76462663 0.46787063 0
814 0.74982131 0.43499017 0
815 0.49190927 0.36653476 0
816 0.39371993 0.49934651 0
817 0.5570332 0.50332765 0
818 0.59188561 0.53187848 0
819 0.51930046 0.53960673 0
820 2.5620015 0.60135732 0
821 2.5936004 0.59675491 0
822 2.6633665 0.52583794 0
823 2.6406305 0.4824001 0
824 2.693815 0.47714604 0
825 2.696077 0.51675745 0
826 2.5272998 0.53792297 0
827 2.5353679 0.57526369 0
828 2.4892229 0.55962498 0
829 2.4993066 0.52280249 0
830 0.47343193 0.46327817 0
831 0.45715289 0.41799104 0
832 2.8833061 0.64440154 0
833 2.9018953 0.67843181 0
834 2.8568281 0.61396261 0
835 0.89317343 0.37596093 0
836 0.89542858 0.40442476 0
837 0.8591954 0.40738074 0
838 2.9158835 0.62748919 0
839 0.66421233 0.34405482 0
840 2.7356088 0.63652143 0
841 2.7200984 0.59163602 0
842 2.6783376 0.60187003 0
843 2.6666795 0.56035495 0
844 2.7054501 0.55191035 0
845 2.773054 0.61891201 0
846 2.8095115 0.61247045 0
847 2.7484051 0.48339129 0
848 2.7532008 0.43844141 0
849 2.8033849 0.4790906 0
850 1.1200219 0.41610004 0
851 3.0432057 0.59746393 0
852 3.0828085 0.57842245 0
853 1.3938878 0.48275488 0
854 2.3908436 0.48489864 0
855 0.99267217 0.52022152 0
856 1.0760321 0.45004734 0
857 2.6248498 0.56068543 0
858 2.6237079 0.52521843 0
859 4.30384 0.51067612 0
860 0.68316258 0.39347608 0
861 0.7198619 0.40337244 0
862 3.1193568 0.53126228 0
863 0.74807747 0.51991443 0
864 2.4579384 0.48991069 0
865 2.4514409 0.53925178 0
866 2.5952095 0.47938751 0
867 2.5526838 0.4764001 0
868 0.60848575 0.37884292 0
869 0.46282541 0.5237322 0
870 0.51722381 0.4810697 0
871 2.7278092 0.51301391 0
872 2.7389456 0.538893 0
873 0.49887341 0.41292394 0
874 0.54963132 0.40391492 0
875 2.8907121 0.59295203 0
876 2.8662499 0.55427979 0
877 2.9028744 0.55163672 0
878 2.9238871 0.57607653 0
879 2.825339 0.581114 0
880 2.5094555 0.47276008 0
881 0.60562608 0.48464609 0
882 0.65122264 0.49774982 0
883 2.8489107 0.50536379 0
884 0.58323587 0.42283524 0
885 3.0007994 0.60478933 0
886 2.9548213 0.60591088 0
887 0.56867497 0.46531174 0
888 0.5361058 0.44948278 0
889 1.0152583 0.41579882 0
890 1.0291308 0.3825175 0
891 1.0390805 0.46544036 0
892 1.0532149 0.41694501 0
893 2.9484359 0.55067793 0
894 2.9906748 0.57239055 0
895 2.9644938 0.57654596 0
896 1.0683542 0.38498888 0
897 0.98185747 0.46572286 0
898 2.7631192 0.57536803 0
899 0.61363777 0.44318669 0
900 0.66547821 0.44000757 0
901 0.69421297 0.50165144 0
902 0.63422548 0.40983465 0
903 0.71199031 0.44460562 0
904 0.73709535 0.48585798 0
905 0.89479502 0.52537869 0
906 0.85528482 0.45965037 0
907 2.6331791 0.59922058 0
908 2.5490867 0.51390281 0
909 2.5192829 0.50315513 0
910 2.8377549 0.52873847 0
911 2.8833566 0.51493451 0
912 0.90125827 0.48185442 0
913 2.7981039 0.52657182 0
914 0.65408356 0.37807853 0
915 2.9205243 0.52427287 0
916 0.74582891 0.40866627 0
917 0.93987499 0.47645281 0
918 0.9012097 0.43822557 0
919 2.5917254 0.51397531 0
920 2.5794058 0.55871254 0
921 3.0271046 0.55733183 0
922 0.94193152 0.52587063 0
923 2.7618182 0.51628537 0
$EndNodes
$Comments
-------------------------------------------------------
Types: bar(1) tri(2) quad(3) tet(4) hex(5) prism(6) pyramid(7)
NumElements
Id Type NumTags PhysGrp ElemGrp IndexList
-------------------------------------------------------
$EndComments
$Elements
1093
   1  2 2 1 1 920 908 919
   2  2 2 1 1 790 789 812
   3  2 2 1 1 765 921 894
   4  2 2 1 1 906 918 912
   5  2 2 1 1 775 774 874
   6  2 2 1 1 813 812 672
   7  2 2 1 1 822 858 823
   8  2 2 1 1 902 900 899
   9  2 2 1 1 807 862 852
  10  2 2 1 1 898 913 879
  11  2 2 1 1 896 669 850
  12  2 2 1 1 669 896 804
  13  2 2 1 1 869 687 816
  14  2 2 1 1 873 874 888
  15  2 2 1 1 865 730 729
  16  2 2 1 1 914 902 868
  17  2 2 1 1 593 656 594
  18  2 2 1 1 901 903 904
  19  2 2 1 1 863 672 671
  20  2 2 1 1 897 889 891
  21  2 2 1 1 637 798 638
  22  2 2 1 1 635 628 744
  23  2 2 1 1 800 848 801
  24  2 2 1 1 831 873 830
  25  2 2 1 1 796 819 795
  26  2 2 1 1 819 870 817
  27  2 2 1 1 801 741 797
  28  2 2 1 1 802 883 849
  29  2 2 1 1 713 714 710
  30  2 2 1 1 819 796 869
  31  2 2 1 1 770 682 701
  32  2 2 1 1 660 711 710
  33  2 2 1 1 694 689 695
  34  2 2 1 1 850 669 456
  35  2 2 1 1 709 773 521
  36  2 2 1 1 507 539 377
  37  2 2 1 1 726 728 784
  38  2 2 1 1 830 686 831
  39  2 2 1 1 648 647 771
  40  2 2 1 1 815 685 776
  41  2 2 1 1 466 619 503
  42  2 2 1 1 636 634 800
  43  2 2 1 1 764 783 807
  44  2 2 1 1 761 593 692
  45  2 2 1 1 627 636 797
  46  2 2 1 1 638 798 799
  47  2 2 1 1 627 740 628
  48  2 2 1 1 746 788 698
  49  2 2 1 1 721 724 622
  50  2 2 1 1 598 600 786
  51  2 2 1 1 645 589 136
  52  2 2 1 1 744 785 635
  53  2 2 1 1 616 780 714
  54  2 2 1 1 638 410 490
  55  2 2 1 1 735 648 771
  56  2 2 1 1 476 755 512
  57  2 2 1 1 475 768 476
  58  2 2 1 1 495 706 135
  59  2 2 1 1 613 667 442
  60  2 2 1 1 555 631 752
  61  2 2 1 1 555 597 556
  62  2 2 1 1 719 443 442
  63  2 2 1 1 443 748 532
  64  2 2 1 1 135 705 136
  65  2 2 1 1 601 641 643
  66  2 2 1 1 482 694 640
  67  2 2 1 1 401 698 402
  68  2 2 1 1 557 759 558
  69  2 2 1 1 532 758 459
  70  2 2 1 1 747 548 547
  71  2 2 1 1 559 630 560
  72  2 2 1 1 720 540 604
  73  2 2 1 1 689 688 690
  74  2 2 1 1 618 685 655
  75  2 2 1 1 617 683 684
  76  2 2 1 1 454 609 605
  77  2 2 1 1 682 536 606
  78  2 2 1 1 457 456 669
  79  2 2 1 1 629 668 557
  80  2 2 1 1 579 662 663
  81  2 2 1 1 617 566 408
  82  2 2 1 1 518 618 519
  83  2 2 1 1 581 661 565
  84  2 2 1 1 658 659 660
  85  2 2 1 1 393 389 355
  86  2 2 1 1 563 594 399
  87  2 2 1 1 469 539 544
  88  2 2 1 1 651 572 571
  89  2 2 1 1 582 567 416
  90  2 2 1 1 464 606 462
  91  2 2 1 1 431 414 411
  92  2 2 1 1 437 436 435
  93  2 2 1 1 410 634 411
  94  2 2 1 1 413 516 489
  95  2 2 1 1 465 470 632
  96  2 2 1 1 581 565 501
  97  2 2 1 1 621 409 498
  98  2 2 1 1 538 620 537
  99  2 2 1 1 408 616 617
 100  2 2 1 1 527 555 528
 101  2 2 1 1 477 607 478
 102  2 2 1 1 511 424 423
 103  2 2 1 1 433 559 434
 104  2 2 1 1 472 512 515
 105  2 2 1 1 562 600 417
 106  2 2 1 1 447 398 526
 107  2 2 1 1 225 450 449
 108  2 2 1 1 406 591 400
 109  2 2 1 1 589 590 588
 110  2 2 1 1 519 509 385
 111  2 2 1 1 407 566 579
 112  2 2 1 1 221 569 380
 113  2 2 1 1 325 397 207
 114  2 2 1 1 333 335 325
 115  2 2 1 1 570 573 574
 116  2 2 1 1 569 570 219
 117  2 2 1 1 416 567 568
 118  2 2 1 1 164 391 165
 119  2 2 1 1 361 436 362
 120  2 2 1 1 374 264 364
 121  2 2 1 1 478 554 511
 122  2 2 1 1 444 458 303
 123  2 2 1 1 253 486 229
 124  2 2 1 1 366 365 331
 125  2 2 1 1 367 307 339
 126  2 2 1 1 467 506 504
 127  2 2 1 1 534 535 536
 128  2 2 1 1 313 446 364
 129  2 2 1 1 190 434 351
 130  2 2 1 1 529 530 531
 131  2 2 1 1 382 322 422
 132  2 2 1 1 230 229 516
 133  2 2 1 1 327 432 361
 134  2 2 1 1 435 432 431
 135  2 2 1 1 173 510 322
 136  2 2 1 1 239 243 403
 137  2 2 1 1 508 507 509
 138  2 2 1 1 507 377 386
 139  2 2 1 1 503 504 505
 140  2 2 1 1 326 414 327
 141  2 2 1 1 501 500 502
 142  2 2 1 1 373 429 491
 143  2 2 1 1 326 230 412
 144  2 2 1 1 482 483 484
 145  2 2 1 1 182 480 183
 146  2 2 1 1 252 177 472
 147  2 2 1 1 345 289 288
 148  2 2 1 1 389 407 468
 149  2 2 1 1 467 344 346
 150  2 2 1 1 290 289 465
 151  2 2 1 1 458 459 260
 152  2 2 1 1 437 438 439
 153  2 2 1 1 430 330 142
 154  2 2 1 1 404 405 406
 155  2 2 1 1 349 204 398
 156  2 2 1 1 163 395 164
 157  2 2 1 1 165 391 392
 158  2 2 1 1 356 285 387
 159  2 2 1 1 359 215 214
 160  2 2 1 1 306 145 144
 161  2 2 1 1 299 352 255
 162  2 2 1 1 206 212 306
 163  2 2 1 1 249 357 250
 164  2 2 1 1 153 294 152
 165  2 2 1 1 340 339 304
 166  2 2 1 1 185 341 184
 167  2 2 1 1 240 318 155
 168  2 2 1 1 123 296 124
 169  2 2 1 1 144 143 359
 170  2 2 1 1 231 254 353
 171  2 2 1 1 323 148 350
 172  2 2 1 1 134 349 211
 173  2 2 1 1 272 300 269
 174  2 2 1 1 196 284 340
 175  2 2 1 1 305 237 332
 176  2 2 1 1 266 267 331
 177  2 2 1 1 194 284  64
 178  2 2 1 1 232 228  31
 179  2 2 1 1 305 267 210
 180  2 2 1 1 263 157  18
 181  2 2 1 1  27 131  26
 182  2 2 1 1  83  84 145
 183  2 2 1 1   7   8 301
 184  2 2 1 1  72  73 282
 185  2 2 1 1  12  13 124
 186  2 2 1 1 161  10  11
 187  2 2 1 1  15 258  14
 188  2 2 1 1 292 293 294
 189  2 2 1 1   6 285   5
 190  2 2 1 1  88 277  87
 191  2 2 1 1   9 283   8
 192  2 2 1 1  82 205  81
 193  2 2 1 1  22  23 275
 194  2 2 1 1  86  87 213
 195  2 2 1 1  39  40 270
 196  2 2 1 1 162   9  10
 197  2 2 1 1 268  89  90
 198  2 2 1 1  35 255  34
 199  2 2 1 1  99 100 238
 200  2 2 1 1 233 234 235
 201  2 2 1 1  78 223  77
 202  2 2 1 1  74  75 222
 203  2 2 1 1 220 221 214
 204  2 2 1 1  85  86 215
 205  2 2 1 1  84  85 143
 206  2 2 1 1  82  83 212
 207  2 2 1 1  45  46 209
 208  2 2 1 1  80  81 202
 209  2 2 1 1 191  25 132
 210  2 2 1 1  21  22 146
 211  2 2 1 1 108 184 186
 212  2 2 1 1   6   7 174
 213  2 2 1 1  71  72 167
 214  2 2 1 1  11  12 159
 215  2 2 1 1   4   5 156
 216  2 2 1 1  97  98 155
 217  2 2 1 1 149 118 152
 218  2 2 1 1  66  67 148
 219  2 2 1 1 140 141 142
 220  2 2 1 1 139  41  42
 221  2 2 1 1  79  80 134
 222  2 2 1 1  67  68 133
 223  3 2 1 1 695 783 782 693
 224  3 2 1 1 489 488 639 490
 225  3 2 1 1 923 847 849 913
 226  3 2 1 1 894 921 851 885
 227  3 2 1 1 917 897 855 922
 228  3 2 1 1 904 863 792 901
 229  3 2 1 1 867 866 919 908
 230  3 2 1 1 790 814 916 712
 231  3 2 1 1 891 856 746 745
 232  3 2 1 1 856 892 896 850
 233  3 2 1 1 906 812 789 837
 234  3 2 1 1 839 914 868 739
 235  3 2 1 1 845 840 841 898
 236  3 2 1 1 919 858 857 920
 237  3 2 1 1 897 808 811 889
 238  3 2 1 1 871 825 824 847
 239  3 2 1 1 857 907 821 920
 240  3 2 1 1 878 877 915 893
 241  3 2 1 1 888 870 830 873
 242  3 2 1 1 820 827 920 821
 243  3 2 1 1 820 771 731 827
 244  3 2 1 1 734 730 865 828
 245  3 2 1 1 900 903 901 882
 246  3 2 1 1 911 915 877 876
 247  3 2 1 1 911 883 802 803
 248  3 2 1 1 807 921 765 764
 249  3 2 1 1 898 872 923 913
 250  3 2 1 1 923 872 871 847
 251  3 2 1 1 916 814 903 861
 252  3 2 1 1 904 813 672 863
 253  3 2 1 1 885 851 696 761
 254  3 2 1 1 884 887 888 874
 255  3 2 1 1 898 841 844 872
 256  3 2 1 1 828 865 864 829
 257  3 2 1 1 687 869 796 608
 258  3 2 1 1 809 918 836 810
 259  3 2 1 1 917 922 905 912
 260  3 2 1 1 837 836 918 906
 261  3 2 1 1 835 779 810 836
 262  3 2 1 1 793 905 922 675
 263  3 2 1 1 862 807 783 695
 264  3 2 1 1 676 675 922 855
 265  3 2 1 1 488 487 782 763
 266  3 2 1 1 762 915 911 803
 267  3 2 1 1 860 861 903 900
 268  3 2 1 1 899 881 887 884
 269  3 2 1 1 887 881 818 817
 270  3 2 1 1 852 851 921 807
 271  3 2 1 1 829 909 908 826
 272  3 2 1 1 827 826 908 920
 273  3 2 1 1 823 858 919 866
 274  3 2 1 1 878 893 895 886
 275  3 2 1 1 860 900 902 914
 276  3 2 1 1 811 810 779 805
 277  3 2 1 1 912 918 809 917
 278  3 2 1 1 889 890 896 892
 279  3 2 1 1 808 897 917 809
 280  3 2 1 1 843 822 825 844
 281  3 2 1 1 846 879 834 651
 282  3 2 1 1 879 913 910 876
 283  3 2 1 1 712 916 861 713
 284  3 2 1 1 860 914 839 781
 285  3 2 1 1 762 765 893 915
 286  3 2 1 1 886 838 875 878
 287  3 2 1 1 735 821 907 736
 288  3 2 1 1 849 883 910 913
 289  3 2 1 1 905 673 906 912
 290  3 2 1 1 842 907 857 843
 291  3 2 1 1 909 829 864 880
 292  3 2 1 1 910 883 911 876
 293  3 2 1 1 885 886 895 894
 294  3 2 1 1 908 909 880 867
 295  3 2 1 1 907 842 657 736
 296  3 2 1 1 812 906 673 672
 297  3 2 1 1 833 691 595 586
 298  3 2 1 1 659 531 777 806
 299  3 2 1 1 777 779 835 806
 300  3 2 1 1 838 886 692 691
 301  3 2 1 1 806 837 789 711
 302  3 2 1 1 849 799 798 802
 303  3 2 1 1 813 904 903 814
 304  3 2 1 1 673 905 793 670
 305  3 2 1 1 899 884 868 902
 306  3 2 1 1 882 901 792 791
 307  3 2 1 1 881 899 900 882
 308  3 2 1 1 637 639 762 803
 309  3 2 1 1 823 866 742 741
 310  3 2 1 1 845 898 879 846
 311  3 2 1 1 855 897 891 745
 312  3 2 1 1 654 772 831 686
 313  3 2 1 1 834 875 838 832
 314  3 2 1 1 890 678 804 896
 315  3 2 1 1 632 686 816 545
 316  3 2 1 1 893 765 894 895
 317  3 2 1 1 505 504 506 545
 318  3 2 1 1 438 635 785 630
 319  3 2 1 1 763 762 639 488
 320  3 2 1 1 698 788 721 402
 321  3 2 1 1 788 850 456 615
 322  3 2 1 1 891 889 892 856
 323  3 2 1 1 793 675 674 405
 324  3 2 1 1 889 811 678 890
 325  3 2 1 1 818 791 794 795
 326  3 2 1 1 887 817 870 888
 327  3 2 1 1 885 761 692 886
 328  3 2 1 1 731 734 828 827
 329  3 2 1 1 773 775 815 776
 330  3 2 1 1 815 873 831 772
 331  3 2 1 1 874 774 868 884
 332  3 2 1 1 867 880 744 743
 333  3 2 1 1 801 848 847 824
 334  3 2 1 1 799 848 800 634
 335  3 2 1 1 818 881 882 791
 336  3 2 1 1 686 830 869 816
 337  3 2 1 1 864 785 744 880
 338  3 2 1 1 785 864 854 630
 339  3 2 1 1 876 875 834 879
 340  3 2 1 1 875 876 877 878
 341  3 2 1 1 873 815 775 874
 342  3 2 1 1 690 697 852 862
 343  3 2 1 1 844 825 871 872
 344  3 2 1 1 869 830 870 819
 345  3 2 1 1 739 868 774 709
 346  3 2 1 1 678 811 805 679
 347  3 2 1 1 679 778 661 677
 348  3 2 1 1 729 726 784 854
 349  3 2 1 1 742 866 867 743
 350  3 2 1 1 729 854 864 865
 351  3 2 1 1 707 792 863 671
 352  3 2 1 1 862 695 689 690
 353  3 2 1 1 683 781 839 684
 354  3 2 1 1 860 781 713 861
 355  3 2 1 1 769 725 853 758
 356  3 2 1 1 451 596 624 452
 357  3 2 1 1 596 597 555 752
 358  3 2 1 1 751 624 596 752
 359  3 2 1 1 646 786 787 590
 360  3 2 1 1 666 720 749 719
 361  3 2 1 1 703 766 770 701
 362  3 2 1 1 703 702 859 494
 363  3 2 1 1 420 859 702 421
 364  3 2 1 1 859 706 495 494
 365  3 2 1 1 768 767 755 476
 366  3 2 1 1 767 612 558 759
 367  3 2 1 1 757 599 646 645
 368  3 2 1 1 612 665 667 613
 369  3 2 1 1 665 768 475 603
 370  3 2 1 1 756 668 718 513
 371  3 2 1 1 704 625 757 705
 372  3 2 1 1 704 706 859 420
 373  3 2 1 1 590 787 754 588
 374  3 2 1 1 787 786 600 642
 375  3 2 1 1 718 668 629 716
 376  3 2 1 1 749 750 769 748
 377  3 2 1 1 758 853 626 459
 378  3 2 1 1 725 724 723 853
 379  3 2 1 1 680 681 751 753
 380  3 2 1 1 680 747 644 643
 381  3 2 1 1 843 857 858 822
 382  3 2 1 1 732 731 771 647
 383  3 2 1 1 746 856 850 788
 384  3 2 1 1 855 745 700 676
 385  3 2 1 1 717 715 728 541
 386  3 2 1 1 560 630 854 784
 387  3 2 1 1 722 721 788 615
 388  3 2 1 1 626 853 723 722
 389  3 2 1 1 697 696 851 852
 390  3 2 1 1 571 127 840 845
 391  3 2 1 1 847 848 799 849
 392  3 2 1 1 841 840 657 842
 393  3 2 1 1 571 845 846 651
 394  3 2 1 1 841 842 843 844
 395  3 2 1 1 823 741 801 824
 396  3 2 1 1 657 653 652 736
 397  3 2 1 1 657 840 127 126
 398  3 2 1 1 684 738 566 617
 399  3 2 1 1 776 685 618 518
 400  3 2 1 1 217 577 578 218
 401  3 2 1 1 530 564 565 661
 402  3 2 1 1 710 714 780 660
 403  3 2 1 1 664 621 498 499
 404  3 2 1 1 664 780 616 621
 405  3 2 1 1 128 572 650 587
 406  3 2 1 1 585 650 833 586
 407  3 2 1 1 663 521 520 468
 408  3 2 1 1 733 727 730 734
 409  3 2 1 1 839 739 738 684
 410  3 2 1 1 838 691 833 832
 411  3 2 1 1 806 835 836 837
 412  3 2 1 1 778 531 530 661
 413  3 2 1 1 832 649 651 834
 414  3 2 1 1 650 649 832 833
 415  3 2 1 1 573 568 567 574
 416  3 2 1 1 568 573 221 220
 417  3 2 1 1 502 457 669 804
 418  3 2 1 1 660 780 664 658
 419  3 2 1 1 696 526 525 656
 420  3 2 1 1 826 827 828 829
 421  3 2 1 1 822 823 824 825
 422  3 2 1 1 605 760 620 538
 423  3 2 1 1 619 466 343 467
 424  3 2 1 1 535 428 367 461
 425  3 2 1 1 429 537 620 491
 426  3 2 1 1 735 771 820 821
 427  3 2 1 1 583 582 733 732
 428  3 2 1 1 579 566 738 662
 429  3 2 1 1 817 818 795 819
 430  3 2 1 1 505 545 816 687
 431  3 2 1 1 815 772 655 685
 432  3 2 1 1 790 812 813 814
 433  3 2 1 1 808 809 810 811
 434  3 2 1 1 806 711 660 659
 435  3 2 1 1 778 679 805 779
 436  3 2 1 1 678 580 502 804
 437  3 2 1 1 802 798 637 803
 438  3 2 1 1 636 800 801 797
 439  3 2 1 1 410 638 799 634
 440  3 2 1 1 740 627 797 741
 441  3 2 1 1 477 608 796 607
 442  3 2 1 1 794 554 478 607
 443  3 2 1 1 795 794 607 796
 444  3 2 1 1 791 708 554 794
 445  3 2 1 1 737 426 425 707
 446  3 2 1 1 737 405 404 426
 447  3 2 1 1 405 737 670 793
 448  3 2 1 1 674 591 406 405
 449  3 2 1 1 708 791 792 707
 450  3 2 1 1 712 711 789 790
 451  3 2 1 1 699 401 400 591
 452  3 2 1 1 644 754 787 642
 453  3 2 1 1 646 599 598 786
 454  3 2 1 1 750 523 725 769
 455  3 2 1 1 625 542 599 757
 456  3 2 1 1 560 784 728 715
 457  3 2 1 1 747 547 754 644
 458  3 2 1 1 720 604 750 749
 459  3 2 1 1 681 610 624 751
 460  3 2 1 1 688 689 694 552
 461  3 2 1 1 693 782 487 611
 462  3 2 1 1 753 548 747 680
 463  3 2 1 1 763 782 783 764
 464  3 2 1 1 683 714 713 781
 465  3 2 1 1 580 677 661 581
 466  3 2 1 1 777 531 778 779
 467  3 2 1 1 521 773 776 518
 468  3 2 1 1 773 709 774 775
 469  3 2 1 1 655 772 654 544
 470  3 2 1 1 609 682 770 605
 471  3 2 1 1 766 493 633 760
 472  3 2 1 1 759 557 668 756
 473  3 2 1 1 756 755 767 759
 474  3 2 1 1 760 605 770 766
 475  3 2 1 1 556 553 482 484
 476  3 2 1 1 603 540 720 666
 477  3 2 1 1 769 758 532 748
 478  3 2 1 1 548 753 631 546
 479  3 2 1 1 767 768 665 612
 480  3 2 1 1 561 716 629 445
 481  3 2 1 1 703 494 493 766
 482  3 2 1 1 601 642 600 562
 483  3 2 1 1 622 724 623 481
 484  3 2 1 1 715 717 718 716
 485  3 2 1 1 447 697 690 688
 486  3 2 1 1 615 614 626 722
 487  3 2 1 1 762 763 764 765
 488  3 2 1 1 656 593 761 696
 489  3 2 1 1 633 491 620 760
 490  3 2 1 1 421 702 464 463
 491  3 2 1 1 597 550 553 556
 492  3 2 1 1 402 721 622 371
 493  3 2 1 1 645 136 705 757
 494  3 2 1 1 755 756 513 512
 495  3 2 1 1 588 754 547 549
 496  3 2 1 1 751 752 631 753
 497  3 2 1 1 451 450 551 550
 498  3 2 1 1 523 750 604 522
 499  3 2 1 1 748 443 719 749
 500  3 2 1 1 610 681 641 543
 501  3 2 1 1 698 700 745 746
 502  3 2 1 1 676 700 699 591
 503  3 2 1 1 602 727 733 582
 504  3 2 1 1 628 740 743 744
 505  3 2 1 1 541 728 602 415
 506  3 2 1 1 694 482 553 552
 507  3 2 1 1 584 583 732 647
 508  3 2 1 1 740 741 742 743
 509  3 2 1 1 511 554 708 424
 510  3 2 1 1 662 738 739 709
 511  3 2 1 1 737 707 671 670
 512  3 2 1 1 652 217 216 648
 513  3 2 1 1 652 648 735 736
 514  3 2 1 1 731 732 733 734
 515  3 2 1 1 727 726 729 730
 516  3 2 1 1 726 727 602 728
 517  3 2 1 1 725 523 623 724
 518  3 2 1 1 721 722 723 724
 519  3 2 1 1 719 442 667 666
 520  3 2 1 1 717 514 513 718
 521  3 2 1 1 541 524 514 717
 522  3 2 1 1 715 716 561 560
 523  3 2 1 1 617 616 714 683
 524  3 2 1 1 710 711 712 713
 525  3 2 1 1 709 521 663 662
 526  3 2 1 1 707 425 424 708
 527  3 2 1 1 529 531 659 658
 528  3 2 1 1 705 135 706 704
 529  3 2 1 1 420 419 625 704
 530  3 2 1 1 701 464 702 703
 531  3 2 1 1 606 464 701 682
 532  3 2 1 1 698 401 699 700
 533  3 2 1 1 447 526 696 697
 534  3 2 1 1 694 695 693 640
 535  3 2 1 1 640 693 611 485
 536  3 2 1 1 595 691 692 593
 537  3 2 1 1 592 384 447 688
 538  3 2 1 1 688 552 551 592
 539  3 2 1 1 503 505 687 608
 540  3 2 1 1 654 686 632 470
 541  3 2 1 1 536 682 609 534
 542  3 2 1 1 680 643 641 681
 543  3 2 1 1 677 580 678 679
 544  3 2 1 1 674 675 676 591
 545  3 2 1 1 670 671 672 673
 546  3 2 1 1 665 603 666 667
 547  3 2 1 1 529 658 664 499
 548  3 2 1 1 621 616 408 409
 549  3 2 1 1 579 663 468 407
 550  3 2 1 1 587 575 207 397
 551  3 2 1 1 530 529 499 564
 552  3 2 1 1 577 334 333 578
 553  3 2 1 1 657 126 577 653
 554  3 2 1 1 396 335 125 128
 555  3 2 1 1 208 378 203 205
 556  3 2 1 1 594 656 525 399
 557  3 2 1 1 508 618 655 544
 558  3 2 1 1 469 289 345 539
 559  3 2 1 1 654 470 469 544
 560  3 2 1 1 585 575 587 650
 561  3 2 1 1 217 652 653 577
 562  3 2 1 1 563 576 586 595
 563  3 2 1 1 649 650 572 651
 564  3 2 1 1 574 583 584 570
 565  3 2 1 1 569 221 573 570
 566  3 2 1 1 647 648 216 584
 567  3 2 1 1 590 589 645 646
 568  3 2 1 1 600 598 418 417
 569  3 2 1 1 642 601 643 644
 570  3 2 1 1 641 601 517 543
 571  3 2 1 1 482 640 485 483
 572  3 2 1 1 431 636 627 435
 573  3 2 1 1 637 638 490 639
 574  3 2 1 1 431 411 634 636
 575  3 2 1 1 437 628 635 438
 576  3 2 1 1 413 412 230 516
 577  3 2 1 1 633 493 492 491
 578  3 2 1 1 471 465 632 545
 579  3 2 1 1 631 555 527 546
 580  3 2 1 1 438 630 559 433
 581  3 2 1 1 629 557 446 445
 582  3 2 1 1 437 435 627 628
 583  3 2 1 1 260 459 626 614
 584  3 2 1 1 510 542 625 419
 585  3 2 1 1 452 624 610 448
 586  3 2 1 1 623 523 370 481
 587  3 2 1 1 622 481 318 371
 588  3 2 1 1 504 503 619 467
 589  3 2 1 1 534 427 428 535
 590  3 2 1 1 519 618 508 509
 591  3 2 1 1 260 614 376 261
 592  3 2 1 1 137 136 589 497
 593  3 2 1 1 446 557 374 364
 594  3 2 1 1 588 533 497 589
 595  3 2 1 1 479 548 546 381
 596  3 2 1 1 444 532 459 458
 597  3 2 1 1 375 613 442 441
 598  3 2 1 1 456 376 614 615
 599  3 2 1 1 612 613 375 558
 600  3 2 1 1 496 495 135 138
 601  3 2 1 1 492 493 496 249
 602  3 2 1 1 434 561 445 351
 603  3 2 1 1 485 611 487 486
 604  3 2 1 1 448 610 543 320
 605  3 2 1 1 454 427 534 609
 606  3 2 1 1 477 466 503 608
 607  3 2 1 1 515 514 524 372
 608  3 2 1 1 462 606 536 460
 609  3 2 1 1 422 421 463 382
 610  3 2 1 1 605 538 453 454
 611  3 2 1 1 480 522 604 540
 612  3 2 1 1 433 192 439 438
 613  3 2 1 1 475 474 540 603
 614  3 2 1 1 415 602 582 416
 615  3 2 1 1 384 592 225 224
 616  3 2 1 1 517 601 562 280
 617  3 2 1 1 229 486 489 516
 618  3 2 1 1 423 426 404 234
 619  3 2 1 1 418 598 599 542
 620  3 2 1 1 510 419 422 322
 621  3 2 1 1 403 402 371 239
 622  3 2 1 1 596 451 550 597
 623  3 2 1 1 593 594 563 595
 624  3 2 1 1 450 225 592 551
 625  3 2 1 1 588 549 383 533
 626  3 2 1 1 128 587 397 396
 627  3 2 1 1 576 575 585 586
 628  3 2 1 1 584 216 219 570
 629  3 2 1 1 582 583 574 567
 630  3 2 1 1 501 502 580 581
 631  3 2 1 1 501 565 310 311
 632  3 2 1 1 468 520 390 389
 633  3 2 1 1 392 391 498 409
 634  3 2 1 1 563 378 208 576
 635  3 2 1 1 568 220 315 416
 636  3 2 1 1 218 578 333 380
 637  3 2 1 1 126 125 334 577
 638  3 2 1 1 207 575 576 208
 639  3 2 1 1 380 569 219 218
 640  3 2 1 1 571 572 128 127
 641  3 2 1 1 407 394 408 566
 642  3 2 1 1 385 509 507 386
 643  3 2 1 1 310 565 564 395
 644  3 2 1 1 390 520 519 385
 645  3 2 1 1 164 395 564 499
 646  3 2 1 1 388 500 501 311
 647  3 2 1 1 379 378 563 399
 648  3 2 1 1 549 479 308 383
 649  3 2 1 1 562 417 281 280
 650  3 2 1 1 559 560 561 434
 651  3 2 1 1 362 436 437 439
 652  3 2 1 1 406 400 242 348
 653  3 2 1 1 374 557 558 375
 654  3 2 1 1 555 556 484 528
 655  3 2 1 1 484 483 352 299
 656  3 2 1 1 550 551 552 553
 657  3 2 1 1 547 548 479 549
 658  3 2 1 1 546 527 363 381
 659  3 2 1 1 476 512 472 473
 660  3 2 1 1 347 471 545 506
 661  3 2 1 1 544 539 507 508
 662  3 2 1 1 452 448 369 449
 663  3 2 1 1 543 517 321 320
 664  3 2 1 1 252 472 515 372
 665  3 2 1 1 418 542 510 173
 666  3 2 1 1 478 511 233 329
 667  3 2 1 1 524 541 415 354
 668  3 2 1 1 183 480 540 474
 669  3 2 1 1 539 345 293 377
 670  3 2 1 1 343 342 344 467
 671  3 2 1 1 461 367 338 324
 672  3 2 1 1 537 366 330 430
 673  3 2 1 1 461 460 536 535
 674  3 2 1 1 430 453 538 537
 675  3 2 1 1 429 365 366 537
 676  3 2 1 1 246 533 383 295
 677  3 2 1 1 500 455 457 502
 678  3 2 1 1 300 528 484 299
 679  3 2 1 1 245 497 533 246
 680  3 2 1 1 303 458 260 259
 681  3 2 1 1 440 443 532 444
 682  3 2 1 1 357 138 137 358
 683  3 2 1 1 360 492 249 209
 684  3 2 1 1 353 485 486 253
 685  3 2 1 1 310 395 163 161
 686  3 2 1 1 363 527 528 300
 687  3 2 1 1 398 399 525 526
 688  3 2 1 1 354 268 372 524
 689  3 2 1 1 350 462 460 323
 690  3 2 1 1 382 463 350 133
 691  3 2 1 1 522 368 370 523
 692  3 2 1 1 192 132 362 439
 693  3 2 1 1 182 368 522 480
 694  3 2 1 1 387 174 390 385
 695  3 2 1 1 518 519 520 521
 696  3 2 1 1 321 517 280 279
 697  3 2 1 1 512 513 514 515
 698  3 2 1 1 176 473 472 177
 699  3 2 1 1 233 511 423 234
 700  3 2 1 1 347 506 467 346
 701  3 2 1 1 141 453 430 142
 702  3 2 1 1 455 500 388 297
 703  3 2 1 1 498 391 164 499
 704  3 2 1 1 245 358 137 497
 705  3 2 1 1 496 138 357 249
 706  3 2 1 1 493 494 495 496
 707  3 2 1 1 491 492 360 373
 708  3 2 1 1 410 413 489 490
 709  3 2 1 1 486 487 488 489
 710  3 2 1 1 353 352 483 485
 711  3 2 1 1 481 370 319 318
 712  3 2 1 1 176 183 474 473
 713  3 2 1 1 381 278 308 479
 714  3 2 1 1 328 477 478 329
 715  3 2 1 1 477 328 188 466
 716  3 2 1 1 473 474 475 476
 717  3 2 1 1 290 465 471 347
 718  3 2 1 1 465 289 469 470
 719  3 2 1 1 188 187 343 466
 720  3 2 1 1 462 350 463 464
 721  3 2 1 1 324 323 460 461
 722  3 2 1 1 455 376 456 457
 723  3 2 1 1 297 296 376 455
 724  3 2 1 1 453 141 427 454
 725  3 2 1 1 449 450 451 452
 726  3 2 1 1 226 225 449 369
 727  3 2 1 1 320 274 369 448
 728  3 2 1 1 384 349 398 447
 729  3 2 1 1 337 265 375 441
 730  3 2 1 1 313 351 445 446
 731  3 2 1 1 336 440 444 303
 732  3 2 1 1 440 336 337 441
 733  3 2 1 1 440 441 442 443
 734  3 2 1 1 361 432 435 436
 735  3 2 1 1 190 192 433 434
 736  3 2 1 1 431 432 327 414
 737  3 2 1 1 373 302 365 429
 738  3 2 1 1 367 428 257 307
 739  3 2 1 1 427 141 257 428
 740  3 2 1 1 423 424 425 426
 741  3 2 1 1 348 234 404 406
 742  3 2 1 1 419 420 421 422
 743  3 2 1 1 168 417 418 173
 744  3 2 1 1 168 167 281 417
 745  3 2 1 1 315 354 415 416
 746  3 2 1 1 326 412 411 414
 747  3 2 1 1 410 411 412 413
 748  3 2 1 1 408 394 392 409
 749  3 2 1 1 407 389 393 394
 750  3 2 1 1 243 242 400 403
 751  3 2 1 1 400 401 402 403
 752  3 2 1 1 398 204 379 399
 753  3 2 1 1 396 397 325 335
 754  3 2 1 1 163 162  10 161
 755  3 2 1 1 314 392 394 393
 756  3 2 1 1 314 283 165 392
 757  3 2 1 1 393 355 301 314
 758  3 2 1 1 355 389 390 174
 759  3 2 1 1 160 159 298 311
 760  3 2 1 1 387 285   6 174
 761  3 2 1 1 298 297 388 311
 762  3 2 1 1 356 386 377 156
 763  3 2 1 1 385 386 356 387
 764  3 2 1 1 201 204 349 134
 765  3 2 1 1 359 380 333 144
 766  3 2 1 1 230 326 129 227
 767  3 2 1 1 211 349 384 224
 768  3 2 1 1 327 361 131 130
 769  3 2 1 1 383 308 270 295
 770  3 2 1 1 316 220 214 213
 771  3 2 1 1 322 382 133 172
 772  3 2 1 1 381 363 271 278
 773  3 2 1 1 347 346 151 150
 774  3 2 1 1 336 303 262 158
 775  3 2 1 1 353 253 232 231
 776  3 2 1 1 214 221 380 359
 777  3 2 1 1 203 378 379 204
 778  3 2 1 1  82 212 206 205
 779  3 2 1 1 377 293 291 156
 780  3 2 1 1 188 328 169 189
 781  3 2 1 1 123 261 376 296
 782  3 2 1 1 264 374 375 265
 783  3 2 1 1 364 264 154 147
 784  3 2 1 1 337 157 263 265
 785  3 2 1 1 373 360 312 302
 786  3 2 1 1 251 252 372 268
 787  3 2 1 1 354 315 277 276
 788  3 2 1 1 240 239 371 318
 789  3 2 1 1 180 319 370 368
 790  3 2 1 1 226 369 274 273
 791  3 2 1 1 368 182 181 180
 792  3 2 1 1 332 331 267 305
 793  3 2 1 1 294 153 121 292
 794  3 2 1 1 340 284 194 338
 795  3 2 1 1 341 185 122 309
 796  3 2 1 1 340 338 367 339
 797  3 2 1 1 304 197 196 340
 798  3 2 1 1 332 330 366 331
 799  3 2 1 1 291 293 292   3
 800  3 2 1 1 187 186 184 341
 801  3 2 1 1 365 302 266 331
 802  3 2 1 1 147 146 313 364
 803  3 2 1 1  87 277 316 213
 804  3 2 1 1 248 358 245 247
 805  3 2 1 1   9 162 165 283
 806  3 2 1 1 222 321 279  74
 807  3 2 1 1 175 179 183 176
 808  3 2 1 1  81 205 203 202
 809  3 2 1 1 271 363 300 272
 810  3 2 1 1 235 234 348 317
 811  3 2 1 1 329 233 235 170
 812  3 2 1 1 132 131 361 362
 813  3 2 1 1 275 193 351 313
 814  3 2 1 1 312 360 209  46
 815  3 2 1 1 139 246 295  41
 816  3 2 1 1  85 215 359 143
 817  3 2 1 1 250 357 358 248
 818  3 2 1 1   5 285 356 156
 819  3 2 1 1   7 301 355 174
 820  3 2 1 1 276  89 268 354
 821  3 2 1 1 255 352 353 254
 822  3 2 1 1 191 190 351 193
 823  3 2 1 1 133 350 148  67
 824  3 2 1 1  80 202 201 134
 825  3 2 1 1 211 224 223  78
 826  3 2 1 1 273  77 223 226
 827  3 2 1 1 317 348 242 241
 828  3 2 1 1 282 281 167  72
 829  3 2 1 1 244 243 239 238
 830  3 2 1 1 149 290 347 150
 831  3 2 1 1 151 346 344 286
 832  3 2 1 1 198  59 304 339
 833  3 2 1 1 294 293 345 288
 834  3 2 1 1 236 330 332 237
 835  3 2 1 1 286 344 342 287
 836  3 2 1 1 149 152 294 288
 837  3 2 1 1 309 287 342 341
 838  3 2 1 1 341 342 343 187
 839  3 2 1 1 199 198 339 307
 840  3 2 1 1 195 324 338 194
 841  3 2 1 1 306 144 333 325
 842  3 2 1 1 336 158 157 337
 843  3 2 1 1 333 334 125 335
 844  3 2 1 1 140 142 330 236
 845  3 2 1 1 328 329 170 169
 846  3 2 1 1 129 326 327 130
 847  3 2 1 1  50 210 267  49
 848  3 2 1 1 210  52  53 305
 849  3 2 1 1 110 122 185 109
 850  3 2 1 1 122 112 113 309
 851  3 2 1 1 197  60  61  62
 852  3 2 1 1 325 207 206 306
 853  3 2 1 1 195 148 323 324
 854  3 2 1 1 171 173 322 172
 855  3 2 1 1 172 133  68  69
 856  3 2 1 1 195  65  66 148
 857  3 2 1 1 320 321 222 274
 858  3 2 1 1 279 282  73  74
 859  3 2 1 1 155 318 319 180
 860  3 2 1 1 180 181  95  96
 861  3 2 1 1 235 317 103 104
 862  3 2 1 1 244 238 100 101
 863  3 2 1 1 317 241 102 103
 864  3 2 1 1 315 220 316 277
 865  3 2 1 1 274 222  75  76
 866  3 2 1 1 240 155  98  99
 867  3 2 1 1  14 258 261 123
 868  3 2 1 1   8 283 314 301
 869  3 2 1 1 275 313 146  22
 870  3 2 1 1 302 312  46  47
 871  3 2 1 1 310 161 160 311
 872  3 2 1 1 158 262  16  17
 873  3 2 1 1 287 309 113 114
 874  3 2 1 1 270 308 278  39
 875  3 2 1 1 151 286 115 116
 876  3 2 1 1 199 307 257 256
 877  3 2 1 1 298 159  12 124
 878  3 2 1 1 306 212  83 145
 879  3 2 1 1  19 154 263  18
 880  3 2 1 1  57 256 140  56
 881  3 2 1 1 140 236  55  56
 882  3 2 1 1  43 247 139  42
 883  3 2 1 1  53  54 237 305
 884  3 2 1 1  59  60 197 304
 885  3 2 1 1 105 170 235 104
 886  3 2 1 1 303 259 258 262
 887  3 2 1 1  47  48 266 302
 888  3 2 1 1 299 255 269 300
 889  3 2 1 1 269  36  37 272
 890  3 2 1 1 296 297 298 124
 891  3 2 1 1  41 295 270  40
 892  3 2 1 1 121   2   3 292
 893  3 2 1 1 156 291   3   4
 894  3 2 1 1 119 120 121 153
 895  3 2 1 1 288 289 290 149
 896  3 2 1 1 115 286 287 114
 897  3 2 1 1  58 199 256  57
 898  3 2 1 1  64 284 196  63
 899  3 2 1 1 248  44  45 250
 900  3 2 1 1 279 280 281 282
 901  3 2 1 1 271  38  39 278
 902  3 2 1 1  71 166 171  70
 903  3 2 1 1  33  34 255 254
 904  3 2 1 1  89 276 277  88
 905  3 2 1 1  94  95 181 179
 906  3 2 1 1 107 189 169 106
 907  3 2 1 1  91 251 268  90
 908  3 2 1 1  24 193 275  23
 909  3 2 1 1  77 273 274  76
 910  3 2 1 1  37  38 271 272
 911  3 2 1 1  35  36 269 255
 912  3 2 1 1 266  48  49 267
 913  3 2 1 1 263 154 264 265
 914  3 2 1 1  15  16 262 258
 915  3 2 1 1 258 259 260 261
 916  3 2 1 1 140 256 257 141
 917  3 2 1 1  32  33 254 231
 918  3 2 1 1 229 228 232 253
 919  3 2 1 1  92 200 251  91
 920  3 2 1 1 251 200 177 252
 921  3 2 1 1 249 250  45 209
 922  3 2 1 1  43  44 248 247
 923  3 2 1 1 245 246 139 247
 924  3 2 1 1 101 102 241 244
 925  3 2 1 1 241 242 243 244
 926  3 2 1 1 238 239 240  99
 927  3 2 1 1  54  55 236 237
 928  3 2 1 1  32 231 232  31
 929  3 2 1 1  30  31 228 227
 930  3 2 1 1 228 229 230 227
 931  3 2 1 1  29  30 227 129
 932  3 2 1 1 223 224 225 226
 933  3 2 1 1 216 217 218 219
 934  3 2 1 1  86 213 214 215
 935  3 2 1 1 134 211  78  79
 936  3 2 1 1  51  52 210  50
 937  3 2 1 1 205 206 207 208
 938  3 2 1 1 201 202 203 204
 939  3 2 1 1  92 178 177 200
 940  3 2 1 1 175 178  92  93
 941  3 2 1 1 198 199  58  59
 942  3 2 1 1  62  63 196 197
 943  3 2 1 1 194  64  65 195
 944  3 2 1 1  25 191 193  24
 945  3 2 1 1 190 191 132 192
 946  3 2 1 1 108 186 189 107
 947  3 2 1 1 186 187 188 189
 948  3 2 1 1 184 108 109 185
 949  3 2 1 1 179 181 182 183
 950  3 2 1 1  97 155 180  96
 951  3 2 1 1  93  94 179 175
 952  3 2 1 1 175 176 177 178
 953  3 2 1 1 166 168 173 171
 954  3 2 1 1  69  70 171 172
 955  3 2 1 1 169 170 105 106
 956  3 2 1 1 166  71 167 168
 957  3 2 1 1 162 163 164 165
 958  3 2 1 1  11 159 160 161
 959  3 2 1 1  17  18 157 158
 960  3 2 1 1  20 147 154  19
 961  3 2 1 1 118 119 153 152
 962  3 2 1 1 151 116 117 150
 963  3 2 1 1 118 149 150 117
 964  3 2 1 1 146 147  20  21
 965  3 2 1 1  84 143 144 145
 966  3 2 1 1  28 130 131  27
 967  3 2 1 1 135 136 137 138
 968  3 2 1 1  26 131 132  25
 969  3 2 1 1  28  29 129 130
 970  3 2 1 1 125 126 127 128
 971  3 2 1 1  13  14 123 124
 972  3 2 1 1 111 112 122 110
 973  3 2 1 1   1   2 121 120
 974  1 2 2 2 111 112
 975  1 2 2 2 112 113
 976  1 2 2 2 113 114
 977  1 2 2 2 114 115
 978  1 2 2 2 115 116
 979  1 2 2 2 116 117
 980  1 2 2 2 117 118
 981  1 2 2 2 118 119
 982  1 2 2 2 119 120
 983  1 2 2 2 120   1
 984  1 2 3 3  51  52
 985  1 2 3 3  52  53
 986  1 2 3 3  53  54
 987  1 2 3 3  54  55
 988  1 2 3 3  55  56
 989  1 2 3 3  56  57
 990  1 2 3 3  57  58
 991  1 2 3 3  58  59
 992  1 2 3 3  59  60
 993  1 2 3 3  60  61
 994  1 2 4 4  61  62
 995  1 2 4 4  62  63
 996  1 2 4 4  63  64
 997  1 2 4 4  64  65
 998  1 2 4 4  65  66
 999  1 2 4 4  66  67
1000  1 2 4 4  67  68
1001  1 2 4 4  68  69
1002  1 2 4 4  69  70
1003  1 2 4 4  70  71
1004  1 2 4 4  71  72
1005  1 2 4 4  72  73
1006  1 2 4 4  73  74
1007  1 2 4 4  74  75
1008  1 2 4 4  75  76
1009  1 2 4 4  76  77
1010  1 2 4 4  77  78
1011  1 2 4 4  78  79
1012  1 2 4 4  79  80
1013  1 2 4 4  80  81
1014  1 2 4 4  81  82
1015  1 2 4 4  82  83
1016  1 2 4 4  83  84
1017  1 2 4 4  84  85
1018  1 2 4 4  85  86
1019  1 2 4 4  86  87
1020  1 2 4 4  87  88
1021  1 2 4 4  88  89
1022  1 2 4 4  89  90
1023  1 2 4 4  90  91
1024  1 2 4 4  91  92
1025  1 2 4 4  92  93
1026  1 2 4 4  93  94
1027  1 2 4 4  94  95
1028  1 2 4 4  95  96
1029  1 2 4 4  96  97
1030  1 2 4 4  97  98
1031  1 2 4 4  98  99
1032  1 2 4 4  99 100
1033  1 2 4 4 100 101
1034  1 2 4 4 101 102
1035  1 2 4 4 102 103
1036  1 2 4 4 103 104
1037  1 2 4 4 104 105
1038  1 2 4 4 105 106
1039  1 2 4 4 106 107
1040  1 2 4 4 107 108
1041  1 2 4 4 108 109
1042  1 2 4 4 109 110
1043  1 2 4 4 110 111
1044  1 2 5 5   1   2
1045  1 2 5 5   2   3
1046  1 2 5 5   3   4
1047  1 2 5 5   4   5
1048  1 2 5 5   5   6
1049  1 2 5 5   6   7
1050  1 2 5 5   7   8
1051  1 2 5 5   8   9
1052  1 2 5 5   9  10
1053  1 2 5 5  10  11
1054  1 2 5 5  11  12
1055  1 2 5 5  12  13
1056  1 2 5 5  13  14
1057  1 2 5 5  14  15
1058  1 2 5 5  15  16
1059  1 2 5 5  16  17
1060  1 2 5 5  17  18
1061  1 2 5 5  18  19
1062  1 2 5 5  19  20
1063  1 2 5 5  20  21
1064  1 2 5 5  21  22
1065  1 2 5 5  22  23
1066  1 2 5 5  23  24
1067  1 2 5 5  24  25
1068  1 2 5 5  25  26
1069  1 2 5 5  26  27
1070  1 2 5 5  27  28
1071  1 2 5 5  28  29
1072  1 2 5 5  29  30
1073  1 2 5 5  30  31
1074  1 2 5 5  31  32
1075  1 2 5 5  32  33
1076  1 2 5 5  33  34
1077  1 2 5 5  34  35
1078  1 2 5 5  35  36
1079  1 2 5 5  36  37
1080  1 2 5 5  37  38
1081  1 2 5 5  38  39
1082  1 2 5 5  39  40
1083  1 2 5 5  40  41
1084  1 2 5 5  41  42
1085  1 2 5 5  42  43
1086  1 2 5 5  43  44
1087  1 2 5 5  44  45
1088  1 2 5 5  45  46
1089  1 2 5 5  46  47
1090  1 2 5 5  47  48
1091  1 2 5 5  48  49
1092  1 2 5 5  49  50
1093  1 2 5 5  50  51
$EndElements
$Comments
-------------------------------------------------------
NumNames
Dim Id Name
-------------------------------------------------------
$EndComments
$PhysicalNames
5
2 1 "fluid"
1 2 "periodic_0_l"
1 3 "periodic_0_r"
1 4 "periodic_1_l"
1 5 "periodic_1_r"
$EndPhysicalNames
